<?xml version="1.0" standalone="no"?>
<!DOCTYPE svg PUBLIC "-//W3C//DTD SVG 20010904//EN"
 "http://www.w3.org/TR/2001/REC-SVG-20010904/DTD/svg10.dtd">
<svg version="1.0" xmlns="http://www.w3.org/2000/svg"
 width="601.000000pt" height="601.000000pt" viewBox="0 0 601.000000 601.000000"
 preserveAspectRatio="xMidYMid meet">
<metadata>
Created by potrace 1.14, written by Peter Selinger 2001-2017
</metadata>
<g transform="translate(0.000000,601.000000) scale(0.100000,-0.100000)"
fill="#000000" stroke="none">
<path d="M2850 5569 c-691 -78 -1322 -564 -1636 -1260 -86 -191 -166 -471
-189 -659 -11 -93 -9 -90 -79 -90 -85 0 -116 -23 -116 -86 0 -40 -5 -49 -57
-103 -118 -120 -173 -248 -180 -416 -8 -190 47 -341 173 -472 58 -60 64 -69
64 -109 0 -60 32 -84 110 -84 l57 0 6 -277 c9 -373 37 -569 112 -759 89 -224
273 -423 500 -541 230 -118 533 -193 940 -229 218 -20 760 -23 975 -5 788 65
1241 277 1443 676 114 225 146 396 155 830 l7 300 66 5 c86 6 109 25 109 89 0
43 5 51 59 110 69 73 134 191 156 282 17 76 20 217 4 291 -23 111 -138 306
-200 339 -15 7 -19 21 -19 60 0 40 -5 55 -25 74 -21 22 -33 25 -92 25 l-68 0
-23 140 c-97 603 -422 1151 -885 1494 -396 293 -891 429 -1367 375z m343 -149
c629 -52 1182 -426 1510 -1022 39 -69 99 -198 93 -198 -2 0 -23 26 -47 58 -69
92 -256 277 -360 357 -764 586 -1856 592 -2624 15 -128 -97 -252 -216 -346
-333 -45 -56 -84 -104 -86 -107 -13 -14 75 166 114 235 250 436 624 755 1059
905 137 47 272 76 410 89 139 12 145 12 277 1z m92 -520 c451 -51 859 -238
1164 -534 266 -259 425 -542 503 -896 22 -101 23 -123 23 -535 0 -468 -7 -557
-61 -743 -157 -544 -649 -773 -1714 -799 -388 -9 -749 16 -1031 72 -559 111
-861 353 -960 771 -38 162 -50 289 -56 624 -7 436 7 570 87 811 145 437 464
796 907 1022 195 99 423 170 628 196 50 6 101 13 115 15 56 8 311 5 395 -4z
m-2285 -1975 c0 -317 -3 -485 -10 -485 -7 0 -10 168 -10 485 0 317 3 485 10
485 7 0 10 -168 10 -485z m4160 0 c0 -424 -2 -485 -15 -485 -13 0 -15 61 -15
485 0 424 2 485 15 485 13 0 15 -61 15 -485z m-4330 -1 c0 -304 -2 -311 -53
-196 -53 118 -55 270 -6 381 22 49 46 91 54 91 3 0 5 -124 5 -276z m4520 204
c60 -129 60 -277 0 -405 -16 -35 -31 -63 -34 -63 -4 0 -6 119 -6 265 0 146 2
265 6 265 3 0 18 -28 34 -62z m-4031 -1411 c103 -108 185 -167 326 -237 278
-136 612 -204 1140 -231 223 -11 546 -6 770 12 709 56 1152 249 1372 596 26
40 48 72 49 70 5 -5 -16 -272 -26 -332 -6 -33 -20 -100 -32 -150 -20 -85 -24
-93 -76 -143 -170 -163 -454 -265 -893 -321 -551 -70 -1373 -62 -1879 20 -379
60 -661 179 -798 334 -34 39 -44 60 -61 133 -27 121 -39 208 -46 347 l-7 120
43 -69 c23 -38 76 -105 118 -149z m224 -731 c373 -150 986 -216 1812 -194 575
15 981 78 1272 198 l48 20 -35 -31 c-290 -252 -857 -372 -1690 -356 -329 6
-455 16 -675 52 -349 58 -606 157 -769 296 -32 27 -55 49 -52 49 3 0 43 -15
89 -34z"/>
<path d="M2850 4839 c-726 -82 -1338 -559 -1544 -1204 -62 -195 -76 -316 -76
-655 0 -280 11 -451 36 -589 111 -606 542 -876 1489 -931 538 -31 1066 17
1394 127 431 144 654 400 726 838 22 130 38 501 31 706 -3 100 -14 225 -25
290 -118 690 -694 1249 -1436 1393 -180 35 -419 45 -595 25z m485 -299 c60
-12 124 -28 142 -35 56 -23 58 -102 3 -130 -26 -14 -37 -13 -112 4 -118 28
-225 41 -361 44 -111 2 -120 3 -138 26 -26 31 -24 75 4 102 21 20 29 21 187
16 113 -3 200 -12 275 -27z m559 -207 c262 -158 453 -368 594 -653 79 -159 90
-195 71 -228 -20 -37 -63 -51 -96 -32 -30 17 -31 19 -78 129 -108 254 -284
467 -503 611 -59 38 -117 77 -129 85 -17 12 -23 26 -23 52 0 81 65 96 164 36z
m-1744 -1037 c0 -2 -12 -25 -27 -52 -37 -65 -39 -176 -6 -240 26 -49 92 -111
140 -131 75 -31 191 -15 265 38 l31 22 -5 -89 c-3 -70 -10 -101 -32 -146 -130
-273 -485 -333 -691 -117 -160 168 -162 417 -5 583 53 56 141 110 206 125 39
9 124 14 124 7z"/>
<path d="M4153 1255 c-66 -47 -8 -150 70 -123 51 18 63 79 24 116 -27 26 -64
28 -94 7z"/>
<path d="M3876 1179 c-36 -28 -33 -83 6 -112 73 -54 153 56 82 112 -34 27 -54
26 -88 0z"/>
</g>
</svg>
